<?xml version="1.0" encoding="UTF-8" standalone="no"?>
<svg
   width="45.003601"
   height="45.000099"
   viewBox="0 0 45.003601 45.000099"
   fill="none"
   version="1.1"
   id="svg19"
   sodipodi:docname="eID Scan logo.svg"
   xmlns:inkscape="http://www.inkscape.org/namespaces/inkscape"
   xmlns:sodipodi="http://sodipodi.sourceforge.net/DTD/sodipodi-0.dtd"
   xmlns="http://www.w3.org/2000/svg"
   xmlns:svg="http://www.w3.org/2000/svg">
  <defs
     id="defs19" />
  <sodipodi:namedview
     id="namedview19"
     pagecolor="#ffffff"
     bordercolor="#666666"
     borderopacity="1.0"
     inkscape:showpageshadow="2"
     inkscape:pageopacity="0.0"
     inkscape:pagecheckerboard="0"
     inkscape:deskcolor="#d1d1d1" />
  <path
     d="M 14.9961,30.0061 H 29.9997 V 15.0024 H 14.9961 Z"
     fill="#2b383d"
     id="path1" />
  <path
     d="M 30,30.0061 H 45.0036 V 15.0024 H 30 Z"
     fill="#039aca"
     id="path2" />
  <path
     d="M 0,30.0061 H 14.9937 V 15.0024 H 0 Z"
     fill="#039aca"
     id="path3" />
  <path
     d="M 30,15.0036 H 45.0036 V 0 H 30 Z"
     fill="#61c4e0"
     id="path4" />
  <path
     d="M 14.9961,15.0036 H 29.9997 V 0 H 14.9961 Z"
     fill="#039aca"
     id="path5" />
  <path
     d="M 0,15.0036 H 14.9937 V 0 H 0 Z"
     fill="#ab6ba8"
     id="path6" />
  <path
     d="M 0,44.9981 H 14.9937 V 30.0044 H 0 Z"
     fill="#465353"
     id="path7" />
  <path
     d="M 14.9961,45.0001 H 29.9997 V 30.0063 H 14.9961 Z"
     fill="#1a1f1d"
     id="path8" />
  <path
     d="M 30,45.0001 H 45.0036 V 30.0063 H 30 Z"
     fill="#dd5113"
     id="path9" />
  <mask
     id="mask0_1060_42731"
     maskUnits="userSpaceOnUse"
     x="4"
     y="0"
     width="28"
     height="45">
    <path
       d="M 4,22.5 32,0 v 45 z"
       fill="#d9d9d9"
       id="path17" />
  </mask>
  <g
     mask="url(#mask0_1060_42731)"
     id="g19">
    <circle
       cx="7.49999"
       cy="22.5"
       transform="rotate(180,7.49999,22.5)"
       stroke="#ffffff"
       stroke-width="3"
       id="ellipse17"
       r="22.5" />
    <circle
       cx="6.5"
       cy="22.5"
       transform="rotate(180,6.5,22.5)"
       stroke="#ffffff"
       stroke-width="3"
       id="ellipse18"
       r="16.5" />
    <circle
       cx="5.5"
       cy="22.5"
       transform="rotate(180,5.5,22.5)"
       stroke="#ffffff"
       stroke-width="3"
       id="ellipse19"
       r="10.5" />
  </g>
</svg>
