<?xml version="1.0" encoding="UTF-8" standalone="no"?>
<!-- Creator: CorelDRAW X7 -->

<svg
   xml:space="preserve"
   width="56.179996mm"
   height="10.610011mm"
   version="1.1"
   style="clip-rule:evenodd;fill-rule:evenodd;image-rendering:optimizeQuality;shape-rendering:geometricPrecision;text-rendering:geometricPrecision"
   viewBox="0 0 5617.9998 1061.0011"
   id="svg155"
   sodipodi:docname="eparaksts-logos.svg"
   inkscape:export-filename="eparaksts-eid.svg"
   inkscape:export-xdpi="96"
   inkscape:export-ydpi="96"
   xmlns:inkscape="http://www.inkscape.org/namespaces/inkscape"
   xmlns:sodipodi="http://sodipodi.sourceforge.net/DTD/sodipodi-0.dtd"
   xmlns="http://www.w3.org/2000/svg"
   xmlns:svg="http://www.w3.org/2000/svg"><sodipodi:namedview
   id="namedview155"
   pagecolor="#ffffff"
   bordercolor="#666666"
   borderopacity="1.0"
   inkscape:showpageshadow="2"
   inkscape:pageopacity="0.0"
   inkscape:pagecheckerboard="0"
   inkscape:deskcolor="#d1d1d1"
   inkscape:document-units="mm" />&#10; <defs
   id="defs1"><style
     type="text/css"
     id="style1">&#10;   <![CDATA[
    .str1 {stroke:#FEFEFE;stroke-width:18.18}
    .str0 {stroke:#FEFEFE;stroke-width:24.24}
    .fil13 {fill:none}
    .fil12 {fill:#FEFEFE}
    .fil8 {fill:#DC5624}
    .fil6 {fill:#AD6FA9}
    .fil5 {fill:#62C4E0}
    .fil0 {fill:#35312F}
    .fil2 {fill:#4C5758}
    .fil4 {fill:#1D9CC9}
    .fil7 {fill:#292D2B}
    .fil3 {fill:#364045}
    .fil14 {fill:#00A0DF}
    .fil10 {fill:#004996}
    .fil9 {fill:#4C4E53}
    .fil1 {fill:#E55324}
    .fil11 {fill:#089ABD}
   ]]>&#10;  </style></defs>&#10; <g
   id="Layer_x0020_1"
   inkscape:label="Layer 1"
   inkscape:groupmode="layer"
   transform="translate(-11268,-18761)">&#10;  <metadata
   id="CorelCorpID_0Corel-Layer" />&#10;  &#10;  &#10;  &#10;  &#10;  &#10;  &#10;  &#10;  &#10;  &#10;  &#10;  &#10;  &#10;  &#10;  &#10;  &#10;  &#10;  &#10;  &#10;  &#10;  &#10;  &#10;  &#10;  &#10;  &#10;  &#10;  &#10;  &#10;  &#10;  &#10;  &#10;  &#10;  &#10;  &#10;  &#10;  &#10;  &#10;  &#10;  &#10;  &#10;  &#10;  &#10;  &#10;  <path
   class="fil9"
   d="m 15488,19779 h 1358 v -979 h -1358 z m 1398,39 h -1437 v -1057 h 1437 z"
   id="path37" />&#10;  <path
   class="fil0"
   d="m 12792,19329 c -3,-55 -36,-89 -86,-89 -49,0 -83,34 -91,89 z m 58,54 h -233 c 10,53 47,86 95,86 34,0 65,-14 87,-40 l 36,42 c -31,36 -75,58 -128,58 -95,0 -158,-71 -158,-174 0,-103 65,-173 156,-174 109,0 153,78 145,202 z"
   id="path38" />&#10;  <path
   class="fil0"
   d="m 12989,19322 h 90 c 63,0 98,-30 98,-91 0,-59 -35,-87 -98,-87 h -90 z m 93,-247 c 102,0 161,56 161,154 0,102 -59,161 -161,161 h -93 v 136 h -69 v -451 z"
   id="path39" />&#10;  <path
   class="fil0"
   d="m 13488,19406 v -32 h -84 c -43,0 -63,13 -63,46 0,31 22,51 59,51 48,0 84,-28 88,-65 z m 0,78 c -22,30 -57,45 -102,45 -66,0 -108,-45 -108,-106 0,-62 42,-102 117,-103 h 93 v -10 c 0,-43 -25,-69 -74,-69 -29,0 -60,11 -91,35 l -27,-52 c 43,-28 74,-43 133,-43 79,0 124,45 124,120 l 1,225 h -66 z"
   id="path40" />&#10;  <path
   class="fil0"
   d="m 13707,19252 c 21,-47 58,-71 107,-71 v 71 c -62,-4 -102,36 -107,95 v 179 h -67 v -343 h 67 z"
   id="path41" />&#10;  <path
   class="fil0"
   d="m 14038,19406 v -32 h -84 c -43,0 -63,13 -63,46 0,31 22,51 59,51 48,0 84,-28 88,-65 z m 0,78 c -22,30 -57,45 -102,45 -66,0 -108,-45 -108,-106 0,-62 42,-102 117,-103 h 93 v -10 c 0,-43 -25,-69 -74,-69 -29,0 -60,11 -91,35 l -27,-52 c 43,-28 74,-43 133,-43 79,0 124,45 124,120 l 1,225 h -66 z"
   id="path42" />&#10;  <polygon
   class="fil0"
   points="14193,19526 14193,19048 14260,19048 14260,19337 14396,19183 14473,19183 14358,19316 14481,19526 14403,19526 14312,19369 14260,19430 14260,19526 "
   id="polygon42" />&#10;  <path
   class="fil0"
   d="m 14727,19215 -24,55 c -27,-19 -62,-31 -89,-31 -26,0 -45,10 -45,35 0,63 164,29 163,153 0,70 -56,102 -118,102 -45,0 -93,-17 -124,-48 l 24,-53 c 26,27 69,43 103,43 28,0 50,-11 50,-37 0,-70 -162,-31 -161,-155 0,-69 54,-99 113,-99 39,0 80,13 108,35 z"
   id="path43" />&#10;  <path
   class="fil0"
   d="m 14971,19504 c -24,16 -50,25 -76,25 -46,0 -86,-29 -86,-100 v -177 h -44 v -56 h 44 v -94 h 66 v 94 h 91 v 56 h -91 v 164 c 0,35 12,46 33,46 14,0 28,-5 46,-15 z"
   id="path44" />&#10;  <path
   class="fil0"
   d="m 15230,19215 -25,55 c -27,-19 -61,-31 -88,-31 -26,0 -46,10 -46,35 0,63 164,29 164,153 0,70 -56,102 -118,102 -46,0 -94,-17 -124,-48 l 23,-53 c 27,27 70,43 104,43 28,0 50,-11 50,-37 0,-70 -162,-31 -162,-155 0,-69 55,-99 114,-99 39,0 80,13 108,35 z"
   id="path45" />&#10;  <path
   class="fil9"
   d="m 15864,19095 -100,252 h 201 z m -121,307 -50,125 h -54 l 200,-496 h 53 l 200,496 h -56 l -50,-125 z"
   id="path46" />&#10;  <path
   class="fil9"
   d="m 16213,19316 h 114 c 81,0 127,-40 127,-117 0,-75 -46,-114 -127,-114 h -114 z m 116,-285 c 111,0 174,61 174,166 0,110 -63,173 -174,173 h -116 v 157 h -51 v -496 z"
   id="path47" />&#10;  <polygon
   class="fil9"
   points="16639,19031 16639,19527 16588,19527 16588,19031 "
   id="polygon47" />&#10;  <polygon
   class="fil2"
   points="11479,19190 11900,19190 11900,19611 11479,19611 "
   id="polygon48" />&#10;  <polygon
   class="fil3"
   points="11690,19190 11900,19190 11900,19401 11690,19401 "
   id="polygon49" />&#10;  <polygon
   class="fil4"
   points="11900,19190 12111,19190 12111,19401 11900,19401 "
   id="polygon50" />&#10;  <polygon
   class="fil4"
   points="12111,18979 12322,18979 12322,19190 12111,19190 "
   id="polygon51" />&#10;  <polygon
   class="fil4"
   points="11479,18769 11690,18769 11690,18979 11479,18979 "
   id="polygon52" />&#10;  <polygon
   class="fil5"
   points="11900,18769 12111,18769 12111,19190 11900,19190 "
   id="polygon53" />&#10;  <polygon
   class="fil6"
   points="11690,19611 11900,19611 11900,19822 11690,19822 "
   id="polygon54" />&#10;  <polygon
   class="fil4"
   points="11690,18979 11900,18979 11900,19190 11690,19190 "
   id="polygon55" />&#10;  <polygon
   class="fil2"
   points="11268,19611 11479,19611 11479,19822 11268,19822 "
   id="polygon56" />&#10;  <polygon
   class="fil7"
   points="11690,19401 11900,19401 11900,19611 11690,19611 "
   id="polygon57" />&#10;  <polygon
   class="fil8"
   points="11900,19401 12111,19401 12111,19611 11900,19611 "
   id="polygon58" />&#10;  &#10;  &#10;  &#10;  &#10;  &#10;  &#10;  &#10;  &#10;  &#10;  &#10;  &#10;  &#10;  &#10;  &#10;  &#10;  &#10;  &#10;  &#10;  &#10;  &#10;  &#10;  &#10;  &#10;  &#10;  &#10;  &#10;  &#10;  &#10;  &#10;  &#10;  &#10;  &#10;  &#10;  &#10;  &#10;  &#10;  &#10;  &#10;  &#10;  &#10;  &#10;  &#10;  &#10;  &#10;  &#10;  &#10;  &#10;  &#10;  &#10;  &#10;  &#10;  &#10;  &#10;  &#10;  &#10;  &#10;  &#10;  &#10;  &#10;  &#10;  &#10;  &#10;  &#10;  &#10;  &#10;  &#10;  &#10;  &#10;  &#10;  &#10;  &#10;  &#10;  &#10;  &#10;  &#10;  &#10;  &#10;  &#10;  &#10;  &#10;  &#10;  &#10;  &#10;  &#10;  &#10;  &#10;  &#10;  &#10;  &#10;  &#10;  &#10;  &#10;  &#10;  &#10;  &#10;  &#10;  &#10;  &#10;  &#10;  &#10;  &#10;  &#10;  &#10;  &#10;  &#10;  &#10;  &#10;  &#10;  &#10;  &#10;  &#10;  &#10;  &#10; </g>&#10;</svg>
