<?xml version="1.0" encoding="UTF-8" standalone="no"?>
<!-- Creator: CorelDRAW X7 -->

<svg
   xml:space="preserve"
   width="39.670048mm"
   height="10.53999mm"
   version="1.1"
   style="clip-rule:evenodd;fill-rule:evenodd;image-rendering:optimizeQuality;shape-rendering:geometricPrecision;text-rendering:geometricPrecision"
   viewBox="0 0 3967.0049 1053.9991"
   id="svg155"
   sodipodi:docname="eparaksts-logos.svg"
   inkscape:export-filename="eparaksts-eid.svg"
   inkscape:export-xdpi="96"
   inkscape:export-ydpi="96"
   xmlns:inkscape="http://www.inkscape.org/namespaces/inkscape"
   xmlns:sodipodi="http://sodipodi.sourceforge.net/DTD/sodipodi-0.dtd"
   xmlns="http://www.w3.org/2000/svg"
   xmlns:svg="http://www.w3.org/2000/svg"><sodipodi:namedview
   id="namedview155"
   pagecolor="#ffffff"
   bordercolor="#666666"
   borderopacity="1.0"
   inkscape:showpageshadow="2"
   inkscape:pageopacity="0.0"
   inkscape:pagecheckerboard="0"
   inkscape:deskcolor="#d1d1d1"
   inkscape:document-units="mm" />&#10; <defs
   id="defs1"><style
     type="text/css"
     id="style1">&#10;   <![CDATA[
    .str1 {stroke:#FEFEFE;stroke-width:18.18}
    .str0 {stroke:#FEFEFE;stroke-width:24.24}
    .fil13 {fill:none}
    .fil12 {fill:#FEFEFE}
    .fil8 {fill:#DC5624}
    .fil6 {fill:#AD6FA9}
    .fil5 {fill:#62C4E0}
    .fil0 {fill:#35312F}
    .fil2 {fill:#4C5758}
    .fil4 {fill:#1D9CC9}
    .fil7 {fill:#292D2B}
    .fil3 {fill:#364045}
    .fil14 {fill:#00A0DF}
    .fil10 {fill:#004996}
    .fil9 {fill:#4C4E53}
    .fil1 {fill:#E55324}
    .fil11 {fill:#089ABD}
   ]]>&#10;  </style></defs>&#10; <g
   id="Layer_x0020_1"
   inkscape:label="Layer 1"
   inkscape:groupmode="layer"
   transform="translate(0,-18839)">&#10;  <metadata
   id="CorelCorpID_0Corel-Layer" />&#10;  &#10;  &#10;  &#10;  &#10;  &#10;  &#10;  &#10;  &#10;  &#10;  &#10;  &#10;  &#10;  &#10;  &#10;  &#10;  &#10;  &#10;  &#10;  &#10;  &#10;  &#10;  &#10;  &#10;  &#10;  &#10;  &#10;  &#10;  &#10;  &#10;  &#10;  &#10;  &#10;  &#10;  &#10;  &#10;  &#10;  &#10;  &#10;  &#10;  &#10;  &#10;  &#10;  &#10;  &#10;  &#10;  &#10;  &#10;  &#10;  &#10;  &#10;  &#10;  &#10;  &#10;  &#10;  &#10;  &#10;  &#10;  &#10;  &#10;  &#10;  &#10;  &#10;  &#10;  &#10;  &#10;  &#10;  &#10;  &#10;  &#10;  &#10;  &#10;  &#10;  &#10;  &#10;  &#10;  &#10;  &#10;  &#10;  &#10;  &#10;  &#10;  &#10;  &#10;  &#10;  &#10;  &#10;  &#10;  &#10;  &#10;  &#10;  &#10;  &#10;  <path
   class="fil0"
   d="m 1524,19400 c -3,-55 -36,-88 -86,-88 -49,0 -83,34 -90,88 z m 58,55 h -233 c 10,52 47,85 95,85 34,0 65,-14 87,-40 l 36,42 c -30,37 -75,58 -128,58 -95,0 -158,-70 -158,-173 0,-104 65,-174 156,-175 109,0 153,79 145,203 z"
   id="path80"
   inkscape:export-filename="eparaksts-eid.svg"
   inkscape:export-xdpi="96"
   inkscape:export-ydpi="96" />&#10;  <path
   class="fil0"
   d="m 1721,19393 h 90 c 63,0 98,-29 98,-90 0,-60 -35,-88 -98,-88 h -90 z m 93,-246 c 102,0 161,56 161,154 0,101 -59,161 -161,161 h -93 v 136 h -69 v -451 z"
   id="path81" />&#10;  <path
   class="fil0"
   d="m 2220,19477 v -31 h -83 c -44,0 -64,12 -64,45 0,31 22,51 59,51 48,0 85,-28 88,-65 z m 1,79 c -22,30 -58,45 -102,45 -67,0 -109,-46 -109,-106 0,-63 42,-103 117,-104 h 93 v -10 c 0,-43 -25,-69 -74,-69 -29,0 -60,12 -91,35 l -27,-51 c 43,-29 74,-44 133,-44 79,0 124,45 124,121 l 1,225 h -65 z"
   id="path82" />&#10;  <path
   class="fil0"
   d="m 2439,19323 c 21,-46 58,-71 107,-71 v 71 c -62,-4 -102,37 -107,96 v 179 h -67 v -343 h 67 z"
   id="path83" />&#10;  <path
   class="fil0"
   d="m 2770,19477 v -31 h -83 c -44,0 -64,12 -64,45 0,31 22,51 60,51 47,0 84,-28 87,-65 z m 1,79 c -22,30 -58,45 -102,45 -67,0 -109,-46 -109,-106 0,-63 43,-103 117,-104 h 93 v -10 c 0,-43 -25,-69 -74,-69 -29,0 -60,12 -91,35 l -27,-51 c 43,-29 74,-44 133,-44 79,0 124,45 125,121 v 225 h -65 z"
   id="path84" />&#10;  <polygon
   class="fil0"
   points="2925,19598 2925,19120 2992,19120 2992,19408 3128,19255 3205,19255 3091,19388 3214,19598 3135,19598 3044,19440 2992,19502 2992,19598 "
   id="polygon84" />&#10;  <path
   class="fil0"
   d="m 3459,19287 -24,54 c -27,-18 -62,-30 -89,-30 -26,0 -45,10 -45,34 0,63 164,29 163,153 0,71 -56,102 -118,102 -45,0 -93,-17 -124,-48 l 24,-52 c 27,26 69,42 103,42 29,0 51,-11 51,-37 0,-70 -163,-30 -162,-154 0,-70 54,-99 113,-99 39,0 80,13 108,35 z"
   id="path85" />&#10;  <path
   class="fil0"
   d="m 3703,19576 c -24,16 -50,25 -76,25 -46,0 -86,-30 -86,-100 v -178 h -43 v -55 h 43 v -94 h 66 v 94 h 91 v 55 h -91 v 164 c 0,36 12,47 33,47 14,0 29,-5 46,-15 z"
   id="path86" />&#10;  <path
   class="fil0"
   d="m 3962,19287 -24,54 c -28,-18 -62,-30 -89,-30 -26,0 -45,10 -45,34 0,63 164,29 163,153 0,71 -56,102 -118,102 -45,0 -94,-17 -124,-48 l 24,-52 c 26,26 69,42 103,42 28,0 50,-11 50,-37 0,-70 -162,-30 -162,-154 0,-70 55,-99 114,-99 39,0 80,13 108,35 z"
   id="path87" />&#10;  &#10;  &#10;  &#10;  &#10;  <polygon
   class="fil2"
   points="211,19261 632,19261 632,19682 211,19682 "
   id="polygon90" />&#10;  <polygon
   class="fil3"
   points="421,19261 632,19261 632,19471 421,19471 "
   id="polygon91" />&#10;  <polygon
   class="fil4"
   points="632,19261 843,19261 843,19471 632,19471 "
   id="polygon92" />&#10;  <polygon
   class="fil4"
   points="843,19050 1053,19050 1053,19261 843,19261 "
   id="polygon93" />&#10;  <polygon
   class="fil4"
   points="211,18839 421,18839 421,19050 211,19050 "
   id="polygon94" />&#10;  <polygon
   class="fil5"
   points="632,18839 843,18839 843,19261 632,19261 "
   id="polygon95" />&#10;  <polygon
   class="fil6"
   points="421,19682 632,19682 632,19893 421,19893 "
   id="polygon96" />&#10;  <polygon
   class="fil4"
   points="421,19050 632,19050 632,19261 421,19261 "
   id="polygon97" />&#10;  <polygon
   class="fil2"
   points="0,19682 211,19682 211,19893 0,19893 "
   id="polygon98" />&#10;  <polygon
   class="fil7"
   points="421,19471 632,19471 632,19682 421,19682 "
   id="polygon99" />&#10;  <polygon
   class="fil8"
   points="632,19471 843,19471 843,19682 632,19682 "
   id="polygon100" />&#10;  &#10;  &#10;  &#10;  &#10;  &#10;  &#10;  &#10;  &#10;  &#10;  &#10;  &#10;  &#10;  &#10;  &#10;  &#10;  &#10;  &#10;  &#10;  &#10;  &#10;  &#10;  &#10;  &#10;  &#10;  &#10;  &#10;  &#10;  &#10;  &#10;  &#10;  &#10;  &#10;  &#10;  &#10;  &#10;  &#10;  &#10;  &#10;  &#10;  &#10;  &#10;  &#10;  &#10;  &#10;  &#10;  &#10;  &#10;  &#10;  &#10;  &#10;  &#10;  &#10;  &#10;  &#10;  &#10;  &#10;  &#10;  &#10;  &#10;  &#10;  &#10;  &#10;  &#10; </g>&#10;</svg>
