<?xml version="1.0" encoding="UTF-8" standalone="no"?>
<!-- Creator: CorelDRAW X7 -->

<svg
   xml:space="preserve"
   width="49.939999mm"
   height="10.570011mm"
   version="1.1"
   style="clip-rule:evenodd;fill-rule:evenodd;image-rendering:optimizeQuality;shape-rendering:geometricPrecision;text-rendering:geometricPrecision"
   viewBox="0 0 4994 1057.0011"
   id="svg155"
   sodipodi:docname="eparaksts-logos.svg"
   inkscape:export-filename="eparaksts-eid.svg"
   inkscape:export-xdpi="96"
   inkscape:export-ydpi="96"
   xmlns:inkscape="http://www.inkscape.org/namespaces/inkscape"
   xmlns:sodipodi="http://sodipodi.sourceforge.net/DTD/sodipodi-0.dtd"
   xmlns="http://www.w3.org/2000/svg"
   xmlns:svg="http://www.w3.org/2000/svg"><sodipodi:namedview
   id="namedview155"
   pagecolor="#ffffff"
   bordercolor="#666666"
   borderopacity="1.0"
   inkscape:showpageshadow="2"
   inkscape:pageopacity="0.0"
   inkscape:pagecheckerboard="0"
   inkscape:deskcolor="#d1d1d1"
   inkscape:document-units="mm" />&#10; <defs
   id="defs1"><style
     type="text/css"
     id="style1">&#10;   <![CDATA[
    .str1 {stroke:#FEFEFE;stroke-width:18.18}
    .str0 {stroke:#FEFEFE;stroke-width:24.24}
    .fil13 {fill:none}
    .fil12 {fill:#FEFEFE}
    .fil8 {fill:#DC5624}
    .fil6 {fill:#AD6FA9}
    .fil5 {fill:#62C4E0}
    .fil0 {fill:#35312F}
    .fil2 {fill:#4C5758}
    .fil4 {fill:#1D9CC9}
    .fil7 {fill:#292D2B}
    .fil3 {fill:#364045}
    .fil14 {fill:#00A0DF}
    .fil10 {fill:#004996}
    .fil9 {fill:#4C4E53}
    .fil1 {fill:#E55324}
    .fil11 {fill:#089ABD}
   ]]>&#10;  </style></defs>&#10; <g
   id="Layer_x0020_1"
   inkscape:label="Layer 1"
   inkscape:groupmode="layer"
   transform="translate(-11268,-23496.998)">&#10;  <metadata
   id="CorelCorpID_0Corel-Layer" />&#10;  <path
   class="fil0"
   d="m 12795,24057 c -3,-56 -36,-89 -86,-89 -49,0 -83,34 -91,89 z m 58,54 h -233 c 10,53 46,86 95,86 34,0 65,-15 87,-40 l 35,42 c -30,36 -74,57 -127,57 -95,0 -158,-70 -158,-173 0,-103 65,-174 156,-174 109,0 153,78 145,202 z"
   id="path1" />&#10;  <polygon
   class="fil0"
   points="13234,24254 12891,24254 12891,24199 13139,23871 12899,23871 12899,23803 13231,23803 13231,23858 12984,24186 13234,24186 "
   id="polygon1" />&#10;  <path
   class="fil0"
   d="m 13302,24254 v -343 h 66 v 343 z m -40,-398 v -53 h 148 v 53 z"
   id="path2" />&#10;  <path
   class="fil0"
   d="m 13979,24041 v 213 h -66 v -193 c 0,-52 -28,-83 -73,-83 -53,2 -85,47 -85,106 v 170 h -67 v -193 c 0,-52 -27,-83 -72,-83 -53,2 -86,47 -86,106 v 170 h -66 v -343 h 66 v 67 c 22,-49 61,-69 112,-69 55,0 93,30 107,82 20,-57 61,-82 117,-82 71,0 113,50 113,132 z"
   id="path3" />&#10;  <path
   class="fil0"
   d="m 14103,24083 c 0,67 39,112 95,112 55,0 94,-45 94,-112 0,-65 -39,-111 -94,-111 -56,0 -95,46 -95,111 z m 256,0 c 0,103 -66,173 -161,173 -96,0 -161,-70 -161,-173 0,-104 65,-174 161,-174 95,0 161,70 161,174 z"
   id="path4" />&#10;  <path
   class="fil0"
   d="m 14637,24074 c 0,-62 -36,-105 -88,-105 -53,0 -90,43 -90,105 0,61 36,105 90,105 52,0 88,-44 88,-105 z m 66,146 c 0,99 -63,161 -160,161 -48,0 -90,-17 -128,-45 l 29,-54 c 29,24 59,38 96,38 59,0 97,-38 97,-98 v -43 c -21,38 -55,58 -102,58 -83,0 -139,-67 -139,-165 0,-97 55,-163 137,-163 47,-1 83,20 104,58 v -56 h 66 z"
   id="path5" />&#10;  <path
   class="fil0"
   d="m 14993,23943 -24,55 c -27,-19 -62,-31 -89,-31 -26,0 -45,10 -45,34 0,64 164,29 163,154 0,70 -56,101 -118,101 -45,0 -93,-16 -124,-47 l 24,-53 c 27,26 69,43 103,43 28,0 51,-11 51,-37 0,-70 -163,-31 -162,-155 0,-69 54,-99 113,-99 39,0 80,13 108,35 z"
   id="path6" />&#10;  <path
   class="fil1"
   d="m 15244,24515 h 979 v -979 h -979 z m 1018,39 h -1057 v -1057 h 1057 z"
   id="path7" />&#10;  <polygon
   class="fil2"
   points="11479,23922 11900,23922 11900,24344 11479,24344 "
   id="polygon7" />&#10;  <polygon
   class="fil3"
   points="11690,23922 11900,23922 11900,24133 11690,24133 "
   id="polygon8" />&#10;  <polygon
   class="fil4"
   points="11900,23922 12111,23922 12111,24133 11900,24133 "
   id="polygon9" />&#10;  <polygon
   class="fil4"
   points="12111,23712 12322,23712 12322,23922 12111,23922 "
   id="polygon10" />&#10;  <polygon
   class="fil4"
   points="11479,23501 11690,23501 11690,23712 11479,23712 "
   id="polygon11" />&#10;  <polygon
   class="fil5"
   points="11900,23501 12111,23501 12111,23922 11900,23922 "
   id="polygon12" />&#10;  <polygon
   class="fil6"
   points="11690,24344 11900,24344 11900,24554 11690,24554 "
   id="polygon13" />&#10;  <polygon
   class="fil4"
   points="11690,23712 11900,23712 11900,23922 11690,23922 "
   id="polygon14" />&#10;  <polygon
   class="fil2"
   points="11268,24344 11479,24344 11479,24554 11268,24554 "
   id="polygon15" />&#10;  <polygon
   class="fil7"
   points="11690,24133 11900,24133 11900,24344 11690,24344 "
   id="polygon16" />&#10;  <polygon
   class="fil8"
   points="11900,24133 12111,24133 12111,24344 11900,24344 "
   id="polygon17" />&#10;  &#10;  &#10;  &#10;  &#10;  &#10;  &#10;  &#10;  &#10;  &#10;  &#10;  &#10;  &#10;  &#10;  &#10;  &#10;  &#10;  &#10;  &#10;  &#10;  &#10;  &#10;  &#10;  &#10;  &#10;  &#10;  &#10;  &#10;  &#10;  &#10;  &#10;  &#10;  &#10;  &#10;  &#10;  &#10;  &#10;  &#10;  &#10;  &#10;  &#10;  &#10;  &#10;  &#10;  &#10;  &#10;  &#10;  &#10;  &#10;  &#10;  &#10;  &#10;  &#10;  &#10;  &#10;  &#10;  &#10;  &#10;  &#10;  &#10;  &#10;  &#10;  &#10;  &#10;  &#10;  &#10;  &#10;  &#10;  &#10;  &#10;  &#10;  &#10;  &#10;  &#10;  &#10;  &#10;  &#10;  &#10;  &#10;  &#10;  &#10;  &#10;  &#10;  &#10;  &#10;  &#10;  &#10;  &#10;  &#10;  &#10;  &#10;  &#10;  &#10;  &#10;  &#10;  &#10;  &#10;  &#10;  &#10;  &#10;  &#10;  &#10;  &#10;  &#10;  &#10;  &#10;  &#10;  &#10;  &#10;  &#10;  &#10;  &#10;  &#10;  &#10;  &#10;  &#10;  &#10;  &#10;  &#10;  &#10;  &#10;  &#10;  &#10;  &#10;  &#10;  &#10;  &#10;  &#10;  &#10;  &#10;  &#10;  &#10;  &#10;  &#10;  &#10;  &#10;  &#10;  &#10;  &#10;  &#10;  &#10;  &#10;  &#10;  &#10;  &#10;  &#10;  &#10;  &#10;  &#10;  &#10;  &#10;  &#10;  &#10;  &#10;  &#10;  &#10;  &#10;  &#10;  &#10;  &#10;  &#10; </g>&#10;</svg>
