<?xml version="1.0" encoding="UTF-8" standalone="no"?>
<!-- Creator: CorelDRAW X7 -->

<svg
   xml:space="preserve"
   width="52.280006mm"
   height="10.590002mm"
   version="1.1"
   style="clip-rule:evenodd;fill-rule:evenodd;image-rendering:optimizeQuality;shape-rendering:geometricPrecision;text-rendering:geometricPrecision"
   viewBox="0 0 5228.0008 1059.0002"
   id="svg155"
   sodipodi:docname="eparaksts-logos.svg"
   inkscape:export-filename="eparaksts-eid.svg"
   inkscape:export-xdpi="96"
   inkscape:export-ydpi="96"
   xmlns:inkscape="http://www.inkscape.org/namespaces/inkscape"
   xmlns:sodipodi="http://sodipodi.sourceforge.net/DTD/sodipodi-0.dtd"
   xmlns="http://www.w3.org/2000/svg"
   xmlns:svg="http://www.w3.org/2000/svg"><sodipodi:namedview
   id="namedview155"
   pagecolor="#ffffff"
   bordercolor="#666666"
   borderopacity="1.0"
   inkscape:showpageshadow="2"
   inkscape:pageopacity="0.0"
   inkscape:pagecheckerboard="0"
   inkscape:deskcolor="#d1d1d1"
   inkscape:document-units="mm" />&#10; <defs
   id="defs1"><style
     type="text/css"
     id="style1">&#10;   <![CDATA[
    .str1 {stroke:#FEFEFE;stroke-width:18.18}
    .str0 {stroke:#FEFEFE;stroke-width:24.24}
    .fil13 {fill:none}
    .fil12 {fill:#FEFEFE}
    .fil8 {fill:#DC5624}
    .fil6 {fill:#AD6FA9}
    .fil5 {fill:#62C4E0}
    .fil0 {fill:#35312F}
    .fil2 {fill:#4C5758}
    .fil4 {fill:#1D9CC9}
    .fil7 {fill:#292D2B}
    .fil3 {fill:#364045}
    .fil14 {fill:#00A0DF}
    .fil10 {fill:#004996}
    .fil9 {fill:#4C4E53}
    .fil1 {fill:#E55324}
    .fil11 {fill:#089ABD}
   ]]>&#10;  </style></defs>&#10; <g
   id="Layer_x0020_1"
   inkscape:label="Layer 1"
   inkscape:groupmode="layer"
   transform="translate(-11268,-21128.998)">&#10;  <metadata
   id="CorelCorpID_0Corel-Layer" />&#10;  &#10;  &#10;  &#10;  &#10;  &#10;  &#10;  &#10;  &#10;  &#10;  &#10;  &#10;  &#10;  &#10;  &#10;  &#10;  &#10;  &#10;  &#10;  &#10;  <path
   class="fil9"
   d="m 15478,22147 h 979 v -979 h -979 z m 1018,39 h -1057 v -1057 h 1057 z"
   id="path17" />&#10;  <path
   class="fil0"
   d="m 12792,21697 c -3,-55 -36,-89 -86,-89 -49,0 -83,34 -91,89 z m 58,54 h -233 c 10,53 47,86 95,86 34,0 65,-14 87,-40 l 36,42 c -31,36 -75,58 -128,58 -95,0 -158,-71 -158,-174 0,-103 65,-173 156,-174 109,0 153,78 145,202 z"
   id="path18" />&#10;  <path
   class="fil0"
   d="m 12989,21690 h 90 c 63,0 98,-30 98,-91 0,-59 -35,-87 -98,-87 h -90 z m 93,-247 c 102,0 161,56 161,154 0,102 -59,161 -161,161 h -93 v 136 h -69 v -451 z"
   id="path19" />&#10;  <path
   class="fil0"
   d="m 13488,21774 v -32 h -84 c -43,0 -63,13 -63,46 0,31 22,51 59,51 48,0 84,-28 88,-65 z m 0,78 c -22,31 -57,45 -102,45 -66,0 -108,-45 -108,-106 0,-62 42,-102 117,-103 h 93 v -10 c 0,-43 -25,-69 -74,-69 -29,0 -60,11 -91,35 l -27,-52 c 43,-28 74,-43 133,-43 79,0 124,45 124,120 l 1,225 h -66 z"
   id="path20" />&#10;  <path
   class="fil0"
   d="m 13707,21620 c 21,-47 58,-71 107,-71 v 71 c -62,-4 -102,36 -107,95 v 179 h -67 v -343 h 67 z"
   id="path21" />&#10;  <path
   class="fil0"
   d="m 14038,21774 v -32 h -84 c -43,0 -63,13 -63,46 0,31 22,51 59,51 48,0 84,-28 88,-65 z m 0,78 c -22,31 -57,45 -102,45 -66,0 -108,-45 -108,-106 0,-62 42,-102 117,-103 h 93 v -10 c 0,-43 -25,-69 -74,-69 -29,0 -60,11 -91,35 l -27,-52 c 43,-28 74,-43 133,-43 79,0 124,45 124,120 l 1,225 h -66 z"
   id="path22" />&#10;  <polygon
   class="fil0"
   points="14193,21894 14193,21416 14260,21416 14260,21705 14396,21551 14473,21551 14358,21684 14481,21894 14403,21894 14312,21737 14260,21798 14260,21894 "
   id="polygon22" />&#10;  <path
   class="fil0"
   d="m 14727,21583 -24,55 c -27,-19 -62,-30 -89,-30 -26,0 -45,9 -45,34 0,63 164,29 163,153 0,70 -56,102 -118,102 -45,0 -93,-17 -124,-48 l 24,-53 c 26,27 69,43 103,43 28,0 50,-11 50,-37 0,-70 -162,-31 -161,-155 0,-69 54,-99 113,-99 39,0 80,13 108,35 z"
   id="path23" />&#10;  <path
   class="fil0"
   d="m 14971,21872 c -24,16 -50,25 -76,25 -46,0 -86,-29 -86,-100 v -177 h -44 v -56 h 44 v -94 h 66 v 94 h 91 v 56 h -91 v 164 c 0,35 12,46 33,46 14,0 28,-5 46,-14 z"
   id="path24" />&#10;  <path
   class="fil0"
   d="m 15230,21583 -25,55 c -27,-19 -61,-30 -88,-30 -26,0 -46,9 -46,34 0,63 164,29 164,153 0,70 -56,102 -118,102 -46,0 -94,-17 -124,-48 l 23,-53 c 27,27 70,43 104,43 28,0 50,-11 50,-37 0,-70 -162,-31 -162,-155 0,-69 55,-99 114,-99 39,0 80,13 108,35 z"
   id="path25" />&#10;  <polygon
   class="fil9"
   points="15694,21899 15694,21403 15745,21403 15745,21845 15941,21845 15941,21899 "
   id="polygon25" />&#10;  <polygon
   class="fil9"
   points="15963,21403 16117,21833 16272,21403 16325,21403 16143,21899 16090,21899 15909,21403 "
   id="polygon26" />&#10;  <polygon
   class="fil2"
   points="11479,21556 11900,21556 11900,21977 11479,21977 "
   id="polygon27" />&#10;  <polygon
   class="fil3"
   points="11690,21556 11900,21556 11900,21767 11690,21767 "
   id="polygon28" />&#10;  <polygon
   class="fil4"
   points="11900,21556 12111,21556 12111,21767 11900,21767 "
   id="polygon29" />&#10;  <polygon
   class="fil4"
   points="12111,21345 12322,21345 12322,21556 12111,21556 "
   id="polygon30" />&#10;  <polygon
   class="fil4"
   points="11479,21135 11690,21135 11690,21345 11479,21345 "
   id="polygon31" />&#10;  <polygon
   class="fil5"
   points="11900,21135 12111,21135 12111,21556 11900,21556 "
   id="polygon32" />&#10;  <polygon
   class="fil6"
   points="11690,21977 11900,21977 11900,22188 11690,22188 "
   id="polygon33" />&#10;  <polygon
   class="fil4"
   points="11690,21345 11900,21345 11900,21556 11690,21556 "
   id="polygon34" />&#10;  <polygon
   class="fil2"
   points="11268,21977 11479,21977 11479,22188 11268,22188 "
   id="polygon35" />&#10;  <polygon
   class="fil7"
   points="11690,21767 11900,21767 11900,21977 11690,21977 "
   id="polygon36" />&#10;  <polygon
   class="fil8"
   points="11900,21767 12111,21767 12111,21977 11900,21977 "
   id="polygon37" />&#10;  &#10;  &#10;  &#10;  &#10;  &#10;  &#10;  &#10;  &#10;  &#10;  &#10;  &#10;  &#10;  &#10;  &#10;  &#10;  &#10;  &#10;  &#10;  &#10;  &#10;  &#10;  &#10;  &#10;  &#10;  &#10;  &#10;  &#10;  &#10;  &#10;  &#10;  &#10;  &#10;  &#10;  &#10;  &#10;  &#10;  &#10;  &#10;  &#10;  &#10;  &#10;  &#10;  &#10;  &#10;  &#10;  &#10;  &#10;  &#10;  &#10;  &#10;  &#10;  &#10;  &#10;  &#10;  &#10;  &#10;  &#10;  &#10;  &#10;  &#10;  &#10;  &#10;  &#10;  &#10;  &#10;  &#10;  &#10;  &#10;  &#10;  &#10;  &#10;  &#10;  &#10;  &#10;  &#10;  &#10;  &#10;  &#10;  &#10;  &#10;  &#10;  &#10;  &#10;  &#10;  &#10;  &#10;  &#10;  &#10;  &#10;  &#10;  &#10;  &#10;  &#10;  &#10;  &#10;  &#10;  &#10;  &#10;  &#10;  &#10;  &#10;  &#10;  &#10;  &#10;  &#10;  &#10;  &#10;  &#10;  &#10;  &#10;  &#10;  &#10;  &#10;  &#10;  &#10;  &#10;  &#10;  &#10;  &#10;  &#10;  &#10;  &#10;  &#10;  &#10;  &#10;  &#10;  &#10;  &#10;  &#10;  &#10;  &#10;  &#10;  &#10;  &#10;  &#10;  &#10;  &#10; </g>&#10;</svg>
