<?xml version="1.0" encoding="UTF-8" standalone="no"?>
<!-- Creator: CorelDRAW X7 -->

<svg
   xml:space="preserve"
   width="37.459999mm"
   height="16.000008mm"
   version="1.1"
   style="clip-rule:evenodd;fill-rule:evenodd;image-rendering:optimizeQuality;shape-rendering:geometricPrecision;text-rendering:geometricPrecision"
   viewBox="0 0 3746 1600.0008"
   id="svg155"
   sodipodi:docname="eparaksts-logos.svg"
   inkscape:export-filename="eparaksts-eid.svg"
   inkscape:export-xdpi="96"
   inkscape:export-ydpi="96"
   xmlns:inkscape="http://www.inkscape.org/namespaces/inkscape"
   xmlns:sodipodi="http://sodipodi.sourceforge.net/DTD/sodipodi-0.dtd"
   xmlns="http://www.w3.org/2000/svg"
   xmlns:svg="http://www.w3.org/2000/svg"><sodipodi:namedview
   id="namedview155"
   pagecolor="#ffffff"
   bordercolor="#666666"
   borderopacity="1.0"
   inkscape:showpageshadow="2"
   inkscape:pageopacity="0.0"
   inkscape:pagecheckerboard="0"
   inkscape:deskcolor="#d1d1d1"
   inkscape:document-units="mm" />&#10; <defs
   id="defs1"><style
     type="text/css"
     id="style1">&#10;   <![CDATA[
    .str1 {stroke:#FEFEFE;stroke-width:18.18}
    .str0 {stroke:#FEFEFE;stroke-width:24.24}
    .fil13 {fill:none}
    .fil12 {fill:#FEFEFE}
    .fil8 {fill:#DC5624}
    .fil6 {fill:#AD6FA9}
    .fil5 {fill:#62C4E0}
    .fil0 {fill:#35312F}
    .fil2 {fill:#4C5758}
    .fil4 {fill:#1D9CC9}
    .fil7 {fill:#292D2B}
    .fil3 {fill:#364045}
    .fil14 {fill:#00A0DF}
    .fil10 {fill:#004996}
    .fil9 {fill:#4C4E53}
    .fil1 {fill:#E55324}
    .fil11 {fill:#089ABD}
   ]]>&#10;  </style></defs>&#10; <g
   id="Layer_x0020_1"
   inkscape:label="Layer 1"
   inkscape:groupmode="layer"
   transform="translate(0,-23496.998)">&#10;  <metadata
   id="CorelCorpID_0Corel-Layer" />&#10;  &#10;  &#10;  &#10;  &#10;  &#10;  &#10;  &#10;  &#10;  &#10;  &#10;  &#10;  &#10;  &#10;  &#10;  &#10;  &#10;  &#10;  &#10;  &#10;  &#10;  &#10;  &#10;  &#10;  &#10;  &#10;  &#10;  &#10;  &#10;  &#10;  &#10;  &#10;  &#10;  &#10;  &#10;  &#10;  &#10;  &#10;  &#10;  &#10;  &#10;  &#10;  &#10;  &#10;  &#10;  &#10;  &#10;  &#10;  &#10;  &#10;  &#10;  &#10;  &#10;  &#10;  &#10;  &#10;  &#10;  &#10;  &#10;  &#10;  &#10;  &#10;  &#10;  &#10;  &#10;  &#10;  &#10;  &#10;  &#10;  &#10;  &#10;  &#10;  &#10;  &#10;  &#10;  &#10;  &#10;  &#10;  &#10;  &#10;  &#10;  &#10;  &#10;  &#10;  &#10;  &#10;  &#10;  &#10;  &#10;  &#10;  &#10;  &#10;  &#10;  &#10;  &#10;  &#10;  &#10;  &#10;  &#10;  &#10;  &#10;  &#10;  &#10;  &#10;  &#10;  &#10;  &#10;  &#10;  &#10;  &#10;  &#10;  &#10;  &#10;  &#10;  &#10;  &#10;  &#10;  <path
   class="fil4"
   d="m 3680,24052 h -167 c 4,-31 13,-54 29,-71 15,-16 35,-25 58,-25 24,0 42,8 56,24 14,16 22,38 24,67 v 0 z m -73,203 c 56,0 97,-22 125,-64 v 0 l -34,-28 c -11,14 -23,25 -37,33 -14,8 -31,12 -51,12 -28,0 -52,-10 -70,-30 -18,-20 -28,-47 -29,-79 v 0 h 226 v -24 c 0,-53 -12,-94 -36,-123 -24,-28 -58,-43 -101,-43 -27,0 -51,8 -74,23 -23,14 -40,34 -53,60 -13,26 -19,56 -19,89 v 0 10 c 0,50 14,90 43,119 28,30 65,45 110,45 z m -237,-6 v -473 h -57 v 473 z m -160,0 v -333 h -57 v 333 z m -28,-389 c 11,0 20,-3 25,-10 6,-6 9,-13 9,-23 0,-9 -3,-17 -9,-23 -5,-6 -14,-10 -25,-10 -11,0 -19,4 -25,10 -6,6 -8,14 -8,23 0,10 2,17 8,23 6,7 14,10 25,10 z m -256,347 c -37,0 -64,-18 -82,-53 v 0 -144 c 17,-35 44,-52 81,-52 28,0 50,10 65,31 15,22 22,52 22,90 0,43 -7,75 -22,96 -15,21 -37,32 -64,32 z m 14,48 c 40,0 71,-16 94,-47 24,-30 35,-71 35,-122 v 0 -5 c 0,-53 -11,-95 -34,-126 -23,-30 -55,-46 -95,-46 -41,0 -73,15 -96,43 v 0 -176 h -56 v 473 h 52 l 3,-39 c 23,30 55,45 97,45 z m -382,-47 c -29,0 -52,-11 -69,-33 -17,-23 -26,-52 -26,-89 0,-42 9,-74 26,-96 17,-23 40,-34 68,-34 29,0 52,12 69,34 17,23 26,52 26,89 0,41 -9,73 -26,95 -17,23 -40,34 -68,34 z m 0,47 c 29,0 56,-7 79,-22 23,-14 41,-34 53,-60 13,-26 19,-55 19,-87 v 0 -4 c 0,-52 -14,-94 -42,-126 -28,-31 -65,-47 -110,-47 -29,0 -56,8 -78,22 -23,14 -41,34 -54,60 -13,26 -19,55 -19,88 v 0 4 c 0,52 14,93 42,125 28,31 64,47 110,47 z m -640,-6 v -244 c 14,-31 39,-47 76,-47 48,0 72,24 72,72 v 0 219 h 57 v -221 c 2,-22 10,-39 24,-51 14,-13 32,-19 53,-19 25,0 44,6 55,18 10,11 16,29 16,53 v 0 220 h 57 v -224 c -1,-77 -39,-116 -112,-116 -24,0 -45,5 -63,15 -17,10 -32,23 -43,39 -17,-36 -48,-54 -95,-54 -41,0 -74,15 -99,44 v 0 l -1,-37 h -54 v 333 z"
   id="path100" />&#10;  <path
   class="fil2"
   d="m 2046,24717 h -167 c 8,36 34,58 69,58 24,0 46,-9 62,-27 l 25,29 c -21,25 -53,39 -91,39 -68,0 -113,-48 -113,-118 0,-70 46,-118 112,-119 77,0 109,54 103,138 z m -41,-37 c -2,-37 -26,-60 -62,-60 -35,0 -59,23 -65,60 z"
   id="path101" />&#10;  <path
   class="fil2"
   d="m 2222,24500 c 77,0 121,40 121,108 0,72 -44,113 -121,113 h -70 v 95 h -51 v -316 z m -70,173 h 68 c 47,0 74,-20 74,-63 0,-42 -27,-62 -74,-62 h -68 z"
   id="path102" />&#10;  <path
   class="fil2"
   d="m 2487,24786 c -15,20 -39,30 -69,30 -46,0 -75,-31 -75,-72 0,-42 29,-70 80,-70 h 64 v -7 c 0,-29 -17,-47 -50,-47 -21,0 -42,8 -63,24 l -18,-35 c 29,-20 50,-30 91,-30 54,0 84,31 85,82 v 153 h -45 z m 0,-54 v -21 h -57 c -30,0 -44,8 -44,31 0,21 16,34 41,34 33,0 58,-18 60,-44 z"
   id="path103" />&#10;  <path
   class="fil2"
   d="m 2665,24628 c 16,-32 45,-49 83,-49 v 49 c -48,-3 -79,25 -83,65 v 123 h -52 v -235 h 52 z"
   id="path104" />&#10;  <path
   class="fil2"
   d="m 2892,24786 c -15,20 -39,30 -70,30 -45,0 -74,-31 -74,-72 0,-42 29,-70 80,-70 h 64 v -7 c 0,-29 -17,-47 -51,-47 -20,0 -41,8 -62,24 l -19,-35 c 30,-20 51,-30 91,-30 55,0 85,31 85,82 l 1,153 h -45 z m 0,-54 v -21 h -57 c -30,0 -44,8 -44,31 0,21 15,34 41,34 32,0 57,-18 60,-44 z"
   id="path105" />&#10;  <polygon
   class="fil2"
   points="2991,24816 2991,24474 3041,24474 3041,24681 3143,24571 3200,24571 3115,24666 3207,24816 3148,24816 3080,24704 3041,24747 3041,24816 "
   id="polygon105" />&#10;  <path
   class="fil2"
   d="m 3392,24603 -16,37 c -19,-13 -41,-20 -60,-20 -17,0 -30,6 -30,23 0,43 110,20 109,104 0,48 -37,69 -79,69 -30,0 -62,-11 -82,-32 l 15,-36 c 18,18 47,29 69,29 19,0 34,-8 34,-25 0,-48 -108,-21 -108,-105 0,-47 36,-68 76,-68 26,0 53,9 72,24 z"
   id="path106" />&#10;  <path
   class="fil2"
   d="m 3557,24799 c -16,11 -32,17 -50,17 -30,0 -56,-20 -56,-67 v -121 h -29 v -38 h 29 v -63 h 43 v 63 h 60 v 38 h -60 v 111 c 0,24 8,32 22,32 9,0 18,-4 30,-10 z"
   id="path107" />&#10;  <path
   class="fil2"
   d="m 3743,24603 -17,37 c -18,-13 -41,-20 -59,-20 -17,0 -30,6 -30,23 0,43 109,20 109,104 0,48 -37,69 -79,69 -30,0 -62,-11 -83,-32 l 16,-36 c 18,18 47,29 69,29 19,0 34,-8 34,-25 0,-48 -109,-21 -108,-105 0,-47 36,-68 76,-68 26,0 53,9 72,24 z"
   id="path108" />&#10;  <polygon
   class="fil3"
   points="1067,24030 533,24030 533,24564 1067,24564 "
   id="polygon108" />&#10;  <polygon
   class="fil4"
   points="1600,24030 1067,24030 1067,24564 1600,24564 "
   id="polygon109" />&#10;  <polygon
   class="fil4"
   points="533,24030 0,24030 0,24564 533,24564 "
   id="polygon110" />&#10;  <polygon
   class="fil5"
   points="1600,23497 1067,23497 1067,24030 1600,24030 "
   id="polygon111" />&#10;  <polygon
   class="fil4"
   points="1067,23497 533,23497 533,24030 1067,24030 "
   id="polygon112" />&#10;  <polygon
   class="fil6"
   points="533,23497 0,23497 0,24030 533,24030 "
   id="polygon113" />&#10;  <polygon
   class="fil2"
   points="533,24564 0,24564 0,25097 533,25097 "
   id="polygon114" />&#10;  <polygon
   class="fil7"
   points="1067,24564 533,24564 533,25097 1067,25097 "
   id="polygon115" />&#10;  <polygon
   class="fil8"
   points="1600,24564 1067,24564 1067,25097 1600,25097 "
   id="polygon116" />&#10;  <polygon
   class="fil12 str0"
   points="558,24539 587,24539 587,24074 786,24457 798,24457 1013,24075 1013,24539 1042,24539 1042,24055 1016,24055 792,24426 584,24055 558,24055 "
   id="polygon117" />&#10;  <polygon
   class="fil13 str1"
   points="1423,24920 224,24920 224,23721 1423,23721 "
   id="polygon118" />&#10;  <path
   class="fil12"
   d="M 1365,23734 H 237 v 1126 h 1128 z m 75,-75 v 1278 H 162 v -1278 z"
   id="path118" />&#10;  <polygon
   class="fil12"
   points="610,24174 771,24481 811,24481 988,24169 988,24564 1067,24564 1067,24030 1001,24030 793,24375 598,24030 533,24030 533,24564 610,24564 "
   id="polygon119" />&#10;  &#10;  &#10;  &#10;  &#10;  &#10;  &#10;  &#10;  &#10;  &#10;  &#10;  &#10;  &#10;  &#10;  &#10;  &#10;  &#10;  &#10;  &#10;  &#10;  &#10;  &#10;  &#10;  &#10;  &#10;  &#10;  &#10;  &#10;  &#10;  &#10;  &#10;  &#10;  &#10;  &#10;  &#10;  &#10;  &#10;  &#10;  &#10;  &#10;  &#10; </g>&#10;</svg>
