<?xml version="1.0" encoding="UTF-8" standalone="no"?>
<!-- Creator: CorelDRAW X7 -->

<svg
   xml:space="preserve"
   width="67.420006mm"
   height="10.570011mm"
   version="1.1"
   style="clip-rule:evenodd;fill-rule:evenodd;image-rendering:optimizeQuality;shape-rendering:geometricPrecision;text-rendering:geometricPrecision"
   viewBox="0 0 6742.0008 1057.0011"
   id="svg155"
   sodipodi:docname="eparaksts-logos.svg"
   inkscape:export-filename="eparaksts-eid.svg"
   inkscape:export-xdpi="96"
   inkscape:export-ydpi="96"
   xmlns:inkscape="http://www.inkscape.org/namespaces/inkscape"
   xmlns:sodipodi="http://sodipodi.sourceforge.net/DTD/sodipodi-0.dtd"
   xmlns="http://www.w3.org/2000/svg"
   xmlns:svg="http://www.w3.org/2000/svg"><sodipodi:namedview
   id="namedview155"
   pagecolor="#ffffff"
   bordercolor="#666666"
   borderopacity="1.0"
   inkscape:showpageshadow="2"
   inkscape:pageopacity="0.0"
   inkscape:pagecheckerboard="0"
   inkscape:deskcolor="#d1d1d1"
   inkscape:document-units="mm" />&#10; <defs
   id="defs1"><style
     type="text/css"
     id="style1">&#10;   <![CDATA[
    .str1 {stroke:#FEFEFE;stroke-width:18.18}
    .str0 {stroke:#FEFEFE;stroke-width:24.24}
    .fil13 {fill:none}
    .fil12 {fill:#FEFEFE}
    .fil8 {fill:#DC5624}
    .fil6 {fill:#AD6FA9}
    .fil5 {fill:#62C4E0}
    .fil0 {fill:#35312F}
    .fil2 {fill:#4C5758}
    .fil4 {fill:#1D9CC9}
    .fil7 {fill:#292D2B}
    .fil3 {fill:#364045}
    .fil14 {fill:#00A0DF}
    .fil10 {fill:#004996}
    .fil9 {fill:#4C4E53}
    .fil1 {fill:#E55324}
    .fil11 {fill:#089ABD}
   ]]>&#10;  </style></defs>&#10; <g
   id="Layer_x0020_1"
   inkscape:label="Layer 1"
   inkscape:groupmode="layer"
   transform="translate(-11269,-26162)">&#10;  <metadata
   id="CorelCorpID_0Corel-Layer" />&#10;  &#10;  &#10;  &#10;  &#10;  &#10;  &#10;  &#10;  &#10;  &#10;  &#10;  &#10;  &#10;  &#10;  &#10;  &#10;  &#10;  &#10;  &#10;  &#10;  &#10;  &#10;  &#10;  &#10;  &#10;  &#10;  &#10;  &#10;  &#10;  &#10;  &#10;  &#10;  &#10;  &#10;  &#10;  &#10;  &#10;  &#10;  &#10;  &#10;  &#10;  &#10;  &#10;  &#10;  &#10;  &#10;  &#10;  &#10;  &#10;  &#10;  &#10;  &#10;  &#10;  &#10;  &#10;  &#10;  &#10;  &#10;  &#10;  &#10;  &#10;  &#10;  &#10;  &#10;  &#10;  &#10;  &#10;  &#10;  &#10;  &#10;  &#10;  &#10;  &#10;  &#10;  &#10;  &#10;  &#10;  &#10;  &#10;  &#10;  &#10;  &#10;  &#10;  &#10;  &#10;  &#10;  &#10;  &#10;  &#10;  &#10;  &#10;  &#10;  &#10;  &#10;  &#10;  &#10;  &#10;  &#10;  &#10;  &#10;  &#10;  &#10;  &#10;  &#10;  &#10;  &#10;  &#10;  &#10;  &#10;  &#10;  &#10;  &#10;  &#10;  &#10;  &#10;  &#10;  &#10;  &#10;  &#10;  &#10;  &#10;  &#10;  &#10;  &#10;  &#10;  &#10;  &#10;  &#10;  &#10;  &#10;  &#10;  &#10;  &#10;  &#10;  &#10;  &#10;  &#10;  &#10;  &#10;  &#10;  &#10;  &#10;  &#10;  &#10;  &#10;  &#10;  &#10;  &#10;  &#10;  &#10;  &#10;  &#10;  &#10;  <polygon
   class="fil2"
   points="11479,26587 11901,26587 11901,27009 11479,27009 "
   id="polygon132" />&#10;  <polygon
   class="fil3"
   points="11690,26587 11901,26587 11901,26798 11690,26798 "
   id="polygon133" />&#10;  <polygon
   class="fil4"
   points="11901,26587 12111,26587 12111,26798 11901,26798 "
   id="polygon134" />&#10;  <polygon
   class="fil4"
   points="12111,26377 12322,26377 12322,26587 12111,26587 "
   id="polygon135" />&#10;  <polygon
   class="fil4"
   points="11479,26166 11690,26166 11690,26377 11479,26377 "
   id="polygon136" />&#10;  <polygon
   class="fil5"
   points="11901,26166 12111,26166 12111,26587 11901,26587 "
   id="polygon137" />&#10;  <polygon
   class="fil6"
   points="11690,27009 11901,27009 11901,27219 11690,27219 "
   id="polygon138" />&#10;  <polygon
   class="fil4"
   points="11690,26377 11901,26377 11901,26587 11690,26587 "
   id="polygon139" />&#10;  <polygon
   class="fil2"
   points="11269,27009 11479,27009 11479,27219 11269,27219 "
   id="polygon140" />&#10;  <polygon
   class="fil7"
   points="11690,26798 11901,26798 11901,27009 11690,27009 "
   id="polygon141" />&#10;  <polygon
   class="fil8"
   points="11901,26798 12111,26798 12111,27009 11901,27009 "
   id="polygon142" />&#10;  <path
   class="fil0"
   d="m 12791,26726 c -2,-55 -35,-89 -85,-89 -49,0 -83,35 -91,89 z m 58,54 h -232 c 10,53 46,86 95,86 34,0 64,-14 87,-40 l 35,42 c -30,37 -74,58 -127,58 -95,0 -158,-70 -158,-173 0,-104 65,-174 156,-175 109,0 153,79 144,202 z"
   id="path142" />&#10;  <path
   class="fil0"
   d="m 12988,26719 h 91 c 62,0 98,-29 98,-91 0,-59 -36,-87 -98,-87 h -91 z m 94,-246 c 102,0 160,56 160,153 0,102 -58,161 -160,161 h -94 v 136 h -68 v -450 z"
   id="path143" />&#10;  <path
   class="fil0"
   d="m 13487,26803 v -32 h -83 c -44,0 -64,13 -64,46 0,31 23,51 60,51 47,0 84,-28 87,-65 z m 1,78 c -22,31 -57,45 -102,45 -67,0 -108,-45 -108,-106 0,-62 42,-102 116,-103 h 93 v -10 c 0,-43 -25,-69 -73,-69 -30,0 -61,12 -91,35 l -28,-52 c 43,-28 75,-43 133,-43 80,0 124,45 125,121 v 224 h -65 z"
   id="path144" />&#10;  <path
   class="fil0"
   d="m 13706,26649 c 21,-46 58,-71 107,-71 v 71 c -62,-4 -101,37 -107,95 v 179 h -66 v -342 h 66 z"
   id="path145" />&#10;  <path
   class="fil0"
   d="m 14037,26803 v -32 h -83 c -44,0 -64,13 -64,46 0,31 23,51 60,51 47,0 84,-28 87,-65 z m 1,78 c -22,31 -58,45 -102,45 -67,0 -109,-45 -109,-106 0,-62 43,-102 117,-103 h 93 v -10 c 0,-43 -25,-69 -73,-69 -30,0 -61,12 -91,35 l -28,-52 c 43,-28 74,-43 133,-43 79,0 124,45 125,121 v 224 h -65 z"
   id="path146" />&#10;  <polygon
   class="fil0"
   points="14192,26923 14192,26446 14259,26446 14259,26734 14395,26581 14472,26581 14358,26713 14480,26923 14402,26923 14311,26766 14259,26827 14259,26923 "
   id="polygon146" />&#10;  <path
   class="fil0"
   d="m 14726,26612 -24,55 c -28,-19 -62,-30 -89,-30 -26,0 -45,9 -45,34 0,63 164,29 163,153 0,70 -56,102 -118,102 -45,0 -93,-17 -124,-48 l 24,-53 c 26,27 69,43 103,43 28,0 50,-11 50,-37 0,-70 -162,-31 -161,-154 0,-70 54,-99 113,-99 39,0 80,12 108,34 z"
   id="path147" />&#10;  <path
   class="fil0"
   d="m 14970,26901 c -24,16 -50,25 -76,25 -46,0 -86,-29 -86,-99 v -178 h -44 v -55 h 44 v -94 h 66 v 94 h 91 v 55 h -91 v 164 c 0,36 12,46 33,46 14,0 28,-5 46,-14 z"
   id="path148" />&#10;  <path
   class="fil0"
   d="m 15228,26612 -24,55 c -27,-19 -61,-30 -89,-30 -26,0 -45,9 -45,34 0,63 164,29 164,153 0,70 -57,102 -119,102 -45,0 -93,-17 -124,-48 l 24,-53 c 27,27 70,43 103,43 29,0 51,-11 51,-37 0,-70 -163,-31 -162,-154 0,-70 54,-99 114,-99 38,0 80,12 107,34 z"
   id="path149" />&#10;  <path
   class="fil14"
   d="m 16222,26693 v 230 h -50 v -215 c 0,-67 -35,-106 -93,-106 -69,2 -110,58 -110,138 v 183 h -50 v -215 c 0,-67 -34,-106 -93,-106 -69,2 -110,58 -110,138 v 183 h -50 v -373 h 50 v 84 c 22,-58 67,-86 128,-86 63,0 106,36 120,97 21,-65 68,-97 133,-97 78,0 125,55 125,145 z"
   id="path150" />&#10;  <path
   class="fil14"
   d="m 16348,26737 c 0,82 50,139 120,139 71,0 121,-57 121,-139 0,-82 -50,-138 -121,-138 -70,0 -120,56 -120,138 z m 291,-1 c 0,112 -71,189 -171,189 -99,0 -170,-77 -170,-189 0,-111 71,-188 170,-188 100,0 171,77 171,188 z"
   id="path151" />&#10;  <path
   class="fil14"
   d="m 17019,26736 c 0,-80 -50,-139 -120,-139 -70,0 -120,58 -120,139 0,82 50,139 120,139 71,0 120,-58 120,-139 z m 51,2 c 0,110 -65,187 -160,187 -60,0 -106,-30 -131,-82 v 80 h -50 v -525 h 50 v 233 c 25,-53 71,-83 129,-83 95,0 162,78 162,190 z"
   id="path152" />&#10;  <path
   class="fil14"
   d="m 17157,26923 v -373 h 49 v 373 z m 57,-480 c 0,22 -14,38 -33,38 -18,0 -32,-16 -32,-38 0,-22 14,-38 32,-38 19,0 33,16 33,38 z"
   id="path153" />&#10;  <polygon
   class="fil14"
   points="17380,26398 17380,26923 17330,26923 17330,26398 "
   id="polygon153" />&#10;  <path
   class="fil14"
   d="m 17749,26713 c -3,-72 -46,-117 -112,-117 -64,0 -110,46 -117,117 z m 45,45 h -274 c 9,73 56,119 121,119 42,0 78,-16 104,-47 l 28,33 c -32,40 -79,62 -135,62 -99,0 -168,-77 -168,-188 0,-111 69,-189 167,-189 108,0 162,83 157,210 z"
   id="path154" />&#10;  <path
   class="fil14"
   d="m 15489,27175 h 2483 v -973 h -2483 z m 2522,39 h -2562 v -1052 h 2562 z"
   id="path155" />&#10; </g>&#10;</svg>
