<?xml version="1.0" encoding="UTF-8" standalone="no"?>
<!-- Creator: CorelDRAW X7 -->

<svg
   xml:space="preserve"
   width="61.84mm"
   height="10.609995mm"
   version="1.1"
   style="clip-rule:evenodd;fill-rule:evenodd;image-rendering:optimizeQuality;shape-rendering:geometricPrecision;text-rendering:geometricPrecision"
   viewBox="0 0 6184.0002 1060.9995"
   id="svg155"
   sodipodi:docname="eparaksts-logos.svg"
   inkscape:export-filename="eparaksts-eid.svg"
   inkscape:export-xdpi="96"
   inkscape:export-ydpi="96"
   xmlns:inkscape="http://www.inkscape.org/namespaces/inkscape"
   xmlns:sodipodi="http://sodipodi.sourceforge.net/DTD/sodipodi-0.dtd"
   xmlns="http://www.w3.org/2000/svg"
   xmlns:svg="http://www.w3.org/2000/svg"><sodipodi:namedview
   id="namedview155"
   pagecolor="#ffffff"
   bordercolor="#666666"
   borderopacity="1.0"
   inkscape:showpageshadow="2"
   inkscape:pageopacity="0.0"
   inkscape:pagecheckerboard="0"
   inkscape:deskcolor="#d1d1d1"
   inkscape:document-units="mm" />&#10; <defs
   id="defs1"><style
     type="text/css"
     id="style1">&#10;   <![CDATA[
    .str1 {stroke:#FEFEFE;stroke-width:18.18}
    .str0 {stroke:#FEFEFE;stroke-width:24.24}
    .fil13 {fill:none}
    .fil12 {fill:#FEFEFE}
    .fil8 {fill:#DC5624}
    .fil6 {fill:#AD6FA9}
    .fil5 {fill:#62C4E0}
    .fil0 {fill:#35312F}
    .fil2 {fill:#4C5758}
    .fil4 {fill:#1D9CC9}
    .fil7 {fill:#292D2B}
    .fil3 {fill:#364045}
    .fil14 {fill:#00A0DF}
    .fil10 {fill:#004996}
    .fil9 {fill:#4C4E53}
    .fil1 {fill:#E55324}
    .fil11 {fill:#089ABD}
   ]]>&#10;  </style></defs>&#10; <g
   id="Layer_x0020_1"
   inkscape:label="Layer 1"
   inkscape:groupmode="layer"
   transform="translate(0,-21195)">&#10;  <metadata
   id="CorelCorpID_0Corel-Layer" />&#10;  &#10;  &#10;  &#10;  &#10;  &#10;  &#10;  &#10;  &#10;  &#10;  &#10;  &#10;  &#10;  &#10;  &#10;  &#10;  &#10;  &#10;  &#10;  &#10;  &#10;  &#10;  &#10;  &#10;  &#10;  &#10;  &#10;  &#10;  &#10;  &#10;  &#10;  &#10;  &#10;  &#10;  &#10;  &#10;  &#10;  &#10;  &#10;  &#10;  &#10;  &#10;  &#10;  &#10;  &#10;  &#10;  &#10;  &#10;  &#10;  &#10;  &#10;  &#10;  &#10;  &#10;  &#10;  &#10;  &#10;  &#10;  &#10;  &#10;  &#10;  &#10;  &#10;  &#10;  &#10;  &#10;  &#10;  <path
   class="fil10"
   d="m 4221,22209 h 1924 v -975 H 4221 Z m 1963,39 H 4182 v -1053 h 2002 z"
   id="path58" />&#10;  <path
   class="fil0"
   d="m 1523,21754 c -2,-55 -35,-88 -86,-88 -48,0 -82,34 -90,88 z m 58,55 h -233 c 11,52 47,85 96,85 33,0 64,-14 87,-40 l 35,42 c -30,37 -74,58 -127,58 -95,0 -158,-70 -158,-173 0,-104 64,-174 156,-175 108,0 152,79 144,203 z"
   id="path59" />&#10;  <path
   class="fil0"
   d="m 1720,21747 h 91 c 62,0 98,-29 98,-90 0,-60 -36,-88 -98,-88 h -91 z m 94,-246 c 102,0 160,56 160,154 0,101 -58,161 -160,161 h -94 v 136 h -68 v -451 z"
   id="path60" />&#10;  <path
   class="fil0"
   d="m 2219,21831 v -31 h -83 c -43,0 -64,13 -64,45 0,31 23,51 60,51 47,0 84,-27 87,-65 z m 1,79 c -22,30 -57,45 -102,45 -67,0 -108,-46 -108,-106 0,-63 42,-103 116,-103 h 93 v -11 c 0,-43 -24,-69 -73,-69 -30,0 -60,12 -91,35 l -27,-51 c 42,-29 74,-44 132,-44 80,0 124,45 125,121 l 1,225 h -66 z"
   id="path61" />&#10;  <path
   class="fil0"
   d="m 2439,21677 c 20,-46 58,-71 106,-71 v 71 c -62,-4 -101,37 -106,96 v 179 h -67 v -343 h 67 z"
   id="path62" />&#10;  <path
   class="fil0"
   d="m 2770,21831 v -31 h -84 c -43,0 -64,13 -64,45 0,31 23,51 60,51 48,0 84,-27 88,-65 z m 0,79 c -22,30 -57,45 -102,45 -67,0 -108,-46 -108,-106 0,-63 42,-103 116,-103 h 94 v -11 c 0,-43 -25,-69 -74,-69 -30,0 -60,12 -91,35 l -27,-51 c 43,-29 74,-44 132,-44 80,0 125,45 125,121 l 1,225 h -66 z"
   id="path63" />&#10;  <polygon
   class="fil0"
   points="2925,21952 2925,21474 2992,21474 2992,21762 3128,21609 3204,21609 3090,21742 3213,21952 3134,21952 3044,21794 2992,21856 2992,21952 "
   id="polygon63" />&#10;  <path
   class="fil0"
   d="m 3459,21641 -25,54 c -27,-18 -61,-30 -88,-30 -26,0 -45,10 -45,34 0,63 164,29 163,153 0,71 -56,102 -118,102 -45,0 -94,-17 -124,-48 l 23,-52 c 27,26 70,42 104,42 28,0 50,-11 50,-37 0,-70 -162,-30 -162,-154 0,-70 55,-99 114,-99 39,0 80,13 108,35 z"
   id="path64" />&#10;  <path
   class="fil0"
   d="m 3703,21930 c -25,16 -50,25 -76,25 -46,0 -86,-30 -86,-100 v -178 h -44 v -55 h 44 v -94 h 66 v 94 h 91 v 55 h -91 v 164 c 0,36 12,47 33,47 14,0 28,-5 46,-15 z"
   id="path65" />&#10;  <path
   class="fil0"
   d="m 3961,21641 -24,54 c -27,-18 -61,-30 -89,-30 -26,0 -45,10 -45,34 0,63 164,29 164,153 0,71 -57,102 -119,102 -45,0 -93,-17 -124,-48 l 24,-52 c 27,26 70,42 103,42 29,0 51,-11 51,-37 0,-70 -163,-30 -162,-154 0,-70 54,-99 114,-99 38,0 80,13 107,35 z"
   id="path66" />&#10;  <polygon
   class="fil10"
   points="4441,21947 4441,21421 4491,21421 4491,21764 4664,21573 4723,21573 4597,21718 4736,21947 4677,21947 4562,21758 4491,21840 4491,21947 "
   id="polygon66" />&#10;  <path
   class="fil10"
   d="m 4994,21818 v -45 h -105 c -56,0 -85,19 -85,60 0,41 30,68 77,68 57,0 100,-32 113,-83 z m 0,71 c -26,41 -69,60 -123,60 -69,0 -114,-49 -114,-114 0,-65 47,-106 126,-107 h 110 v -22 c 0,-54 -30,-87 -90,-87 -37,0 -71,16 -106,43 l -21,-41 c 43,-32 79,-50 137,-50 83,0 129,49 129,129 l 1,247 h -49 z"
   id="path67" />&#10;  <path
   class="fil10"
   d="m 5204,21656 c 22,-55 63,-84 120,-85 v 56 c -71,-2 -115,47 -120,121 v 199 h -50 v -374 h 50 z"
   id="path68" />&#10;  <path
   class="fil10"
   d="m 5565,21921 c -24,18 -49,28 -76,28 -49,0 -86,-32 -86,-106 v -213 h -48 v -45 h 48 v -98 h 49 v 98 l 107,-1 v 46 h -107 v 203 c 0,46 16,63 45,63 17,0 35,-7 54,-20 z"
   id="path69" />&#10;  <path
   class="fil10"
   d="m 5880,21736 c -3,-72 -47,-117 -113,-117 -63,0 -109,46 -117,117 z m 44,45 h -274 c 9,73 57,119 122,119 41,0 78,-16 104,-46 l 27,32 c -32,40 -79,63 -135,63 -99,0 -167,-78 -167,-189 0,-111 69,-188 166,-188 109,-1 162,83 157,209 z"
   id="path70" />&#10;  <polygon
   class="fil2"
   points="211,21624 632,21624 632,22045 211,22045 "
   id="polygon70" />&#10;  <polygon
   class="fil3"
   points="421,21624 632,21624 632,21835 421,21835 "
   id="polygon71" />&#10;  <polygon
   class="fil4"
   points="632,21624 843,21624 843,21835 632,21835 "
   id="polygon72" />&#10;  <polygon
   class="fil4"
   points="843,21413 1053,21413 1053,21624 843,21624 "
   id="polygon73" />&#10;  <polygon
   class="fil4"
   points="211,21203 421,21203 421,21413 211,21413 "
   id="polygon74" />&#10;  <polygon
   class="fil5"
   points="632,21203 843,21203 843,21624 632,21624 "
   id="polygon75" />&#10;  <polygon
   class="fil6"
   points="421,22045 632,22045 632,22256 421,22256 "
   id="polygon76" />&#10;  <polygon
   class="fil4"
   points="421,21413 632,21413 632,21624 421,21624 "
   id="polygon77" />&#10;  <polygon
   class="fil2"
   points="0,22045 211,22045 211,22256 0,22256 "
   id="polygon78" />&#10;  <polygon
   class="fil7"
   points="421,21835 632,21835 632,22045 421,22045 "
   id="polygon79" />&#10;  <polygon
   class="fil8"
   points="632,21835 843,21835 843,22045 632,22045 "
   id="polygon80" />&#10;  &#10;  &#10;  &#10;  &#10;  &#10;  &#10;  &#10;  &#10;  &#10;  &#10;  &#10;  &#10;  &#10;  &#10;  &#10;  &#10;  &#10;  &#10;  &#10;  &#10;  &#10;  &#10;  &#10;  &#10;  &#10;  &#10;  &#10;  &#10;  &#10;  &#10;  &#10;  &#10;  &#10;  &#10;  &#10;  &#10;  &#10;  &#10;  &#10;  &#10;  &#10;  &#10;  &#10;  &#10;  &#10;  &#10;  &#10;  &#10;  &#10;  &#10;  &#10;  &#10;  &#10;  &#10;  &#10;  &#10;  &#10;  &#10;  &#10;  &#10;  &#10;  &#10;  &#10;  &#10;  &#10;  &#10;  &#10;  &#10;  &#10;  &#10;  &#10;  &#10;  &#10;  &#10;  &#10;  &#10;  &#10;  &#10;  &#10;  &#10;  &#10;  &#10;  &#10;  &#10;  &#10;  &#10;  &#10; </g>&#10;</svg>
