<?xml version="1.0" encoding="UTF-8" standalone="no"?>
<!-- Creator: CorelDRAW X7 -->

<svg
   xml:space="preserve"
   width="16mm"
   height="15.999991mm"
   version="1.1"
   style="clip-rule:evenodd;fill-rule:evenodd;image-rendering:optimizeQuality;shape-rendering:geometricPrecision;text-rendering:geometricPrecision"
   viewBox="0 0 1600 1599.9992"
   id="svg155"
   sodipodi:docname="eparaksts-logos.svg"
   inkscape:export-filename="eparaksts-eid.svg"
   inkscape:export-xdpi="96"
   inkscape:export-ydpi="96"
   xmlns:inkscape="http://www.inkscape.org/namespaces/inkscape"
   xmlns:sodipodi="http://sodipodi.sourceforge.net/DTD/sodipodi-0.dtd"
   xmlns="http://www.w3.org/2000/svg"
   xmlns:svg="http://www.w3.org/2000/svg"><sodipodi:namedview
   id="namedview155"
   pagecolor="#ffffff"
   bordercolor="#666666"
   borderopacity="1.0"
   inkscape:showpageshadow="2"
   inkscape:pageopacity="0.0"
   inkscape:pagecheckerboard="0"
   inkscape:deskcolor="#d1d1d1"
   inkscape:document-units="mm" />&#10; <defs
   id="defs1"><style
     type="text/css"
     id="style1">&#10;   <![CDATA[
    .str1 {stroke:#FEFEFE;stroke-width:18.18}
    .str0 {stroke:#FEFEFE;stroke-width:24.24}
    .fil13 {fill:none}
    .fil12 {fill:#FEFEFE}
    .fil8 {fill:#DC5624}
    .fil6 {fill:#AD6FA9}
    .fil5 {fill:#62C4E0}
    .fil0 {fill:#35312F}
    .fil2 {fill:#4C5758}
    .fil4 {fill:#1D9CC9}
    .fil7 {fill:#292D2B}
    .fil3 {fill:#364045}
    .fil14 {fill:#00A0DF}
    .fil10 {fill:#004996}
    .fil9 {fill:#4C4E53}
    .fil1 {fill:#E55324}
    .fil11 {fill:#089ABD}
   ]]>&#10;  </style></defs>&#10; <g
   id="Layer_x0020_1"
   inkscape:label="Layer 1"
   inkscape:groupmode="layer"
   transform="translate(0,-26340.002)">&#10;  <metadata
   id="CorelCorpID_0Corel-Layer" />&#10;  &#10;  &#10;  &#10;  &#10;  &#10;  &#10;  &#10;  &#10;  &#10;  &#10;  &#10;  &#10;  &#10;  &#10;  &#10;  &#10;  &#10;  &#10;  &#10;  &#10;  &#10;  &#10;  &#10;  &#10;  &#10;  &#10;  &#10;  &#10;  &#10;  &#10;  &#10;  &#10;  &#10;  &#10;  &#10;  &#10;  &#10;  &#10;  &#10;  &#10;  &#10;  &#10;  &#10;  &#10;  &#10;  &#10;  &#10;  &#10;  &#10;  &#10;  &#10;  &#10;  &#10;  &#10;  &#10;  &#10;  &#10;  &#10;  &#10;  &#10;  &#10;  &#10;  &#10;  &#10;  &#10;  &#10;  &#10;  &#10;  &#10;  &#10;  &#10;  &#10;  &#10;  &#10;  &#10;  &#10;  &#10;  &#10;  &#10;  &#10;  &#10;  &#10;  &#10;  &#10;  &#10;  &#10;  &#10;  &#10;  &#10;  &#10;  &#10;  &#10;  &#10;  &#10;  &#10;  &#10;  &#10;  &#10;  &#10;  &#10;  &#10;  &#10;  &#10;  &#10;  &#10;  &#10;  &#10;  &#10;  &#10;  &#10;  &#10;  &#10;  &#10;  &#10;  &#10;  &#10;  &#10;  &#10;  &#10;  &#10;  &#10;  &#10;  &#10;  &#10;  &#10;  &#10;  &#10;  &#10;  &#10;  &#10;  &#10;  &#10;  &#10;  &#10;  &#10;  &#10;  &#10;  &#10;  &#10;  <polygon
   class="fil3"
   points="1067,26873 533,26873 533,27407 1067,27407 "
   id="polygon120" />&#10;  <polygon
   class="fil4"
   points="1600,26873 1067,26873 1067,27407 1600,27407 "
   id="polygon121" />&#10;  <polygon
   class="fil4"
   points="533,26873 0,26873 0,27407 533,27407 "
   id="polygon122" />&#10;  <polygon
   class="fil5"
   points="1600,26340 1067,26340 1067,26873 1600,26873 "
   id="polygon123" />&#10;  <polygon
   class="fil4"
   points="1067,26340 533,26340 533,26873 1067,26873 "
   id="polygon124" />&#10;  <polygon
   class="fil6"
   points="533,26340 0,26340 0,26873 533,26873 "
   id="polygon125" />&#10;  <polygon
   class="fil2"
   points="533,27407 0,27407 0,27940 533,27940 "
   id="polygon126" />&#10;  <polygon
   class="fil7"
   points="1067,27407 533,27407 533,27940 1067,27940 "
   id="polygon127" />&#10;  <polygon
   class="fil8"
   points="1600,27407 1067,27407 1067,27940 1600,27940 "
   id="polygon128" />&#10;  <polygon
   class="fil12 str0"
   points="558,27382 587,27382 587,26917 786,27300 798,27300 1013,26918 1013,27382 1042,27382 1042,26898 1016,26898 792,27268 584,26898 558,26898 "
   id="polygon129" />&#10;  <polygon
   class="fil13 str1"
   points="1423,27763 224,27763 224,26564 1423,26564 "
   id="polygon130" />&#10;  <path
   class="fil12"
   d="M 1365,26577 H 237 v 1126 h 1128 z m 75,-75 v 1278 H 162 v -1278 z"
   id="path130" />&#10;  <polygon
   class="fil12"
   points="610,27017 771,27324 811,27324 988,27012 988,27407 1067,27407 1067,26873 1001,26873 793,27218 598,26873 533,26873 533,27407 610,27407 "
   id="polygon131" />&#10;  &#10;  &#10;  &#10;  &#10;  &#10;  &#10;  &#10;  &#10;  &#10;  &#10;  &#10;  &#10;  &#10;  &#10;  &#10;  &#10;  &#10;  &#10;  &#10;  &#10;  &#10;  &#10;  &#10;  &#10;  &#10;  &#10;  &#10; </g>&#10;</svg>
