<svg width="149" height="45" viewBox="0 0 149 45" fill="none" xmlns="http://www.w3.org/2000/svg">
<path d="M14.9961 30.0061H29.9997V15.0024H14.9961V30.0061Z" fill="#2B383D"/>
<path d="M30 30.0061H45.0036V15.0024H30V30.0061Z" fill="#039ACA"/>
<path d="M0 30.0061H14.9937V15.0024H0V30.0061Z" fill="#039ACA"/>
<path d="M30 15.0036H45.0036V0H30V15.0036Z" fill="#61C4E0"/>
<path d="M14.9961 15.0036H29.9997V0H14.9961V15.0036Z" fill="#039ACA"/>
<path d="M0 15.0036H14.9937V0H0V15.0036Z" fill="#AB6BA8"/>
<path d="M0 44.9981H14.9937V30.0044H0V44.9981Z" fill="#465353"/>
<path d="M14.9961 45.0001H29.9997V30.0063H14.9961V45.0001Z" fill="#1A1F1D"/>
<path d="M30 45.0001H45.0036V30.0063H30V45.0001Z" fill="#DD5113"/>
<path d="M144.219 17.0801C145.134 17.0801 145.949 17.2801 146.663 17.6801C147.392 18.0801 147.964 18.6961 148.378 19.5281C148.793 20.3441 149 21.4001 149 22.6961V30.0401H146.32V23.0801C146.32 21.9441 146.077 21.0961 145.591 20.5361C145.12 19.9761 144.455 19.6961 143.598 19.6961C142.969 19.6961 142.411 19.8401 141.926 20.1281C141.44 20.4161 141.061 20.8481 140.789 21.4241C140.532 21.9841 140.403 22.6961 140.403 23.5601V30.0401H137.724V17.2241H140.275V20.6801L139.825 19.6241C140.225 18.8081 140.804 18.1841 141.561 17.7521C142.333 17.3041 143.219 17.0801 144.219 17.0801Z" fill="#151919"/>
<path d="M131.755 30.0401V27.4481L131.604 26.8961V22.3601C131.604 21.4801 131.369 20.8001 130.897 20.3201C130.425 19.8241 129.711 19.5761 128.753 19.5761C128.11 19.5761 127.474 19.6881 126.845 19.9121C126.231 20.1361 125.709 20.4481 125.28 20.8481L124.23 18.6641C124.844 18.1361 125.573 17.7441 126.416 17.4881C127.274 17.2161 128.16 17.0801 129.075 17.0801C130.733 17.0801 132.012 17.5281 132.912 18.4241C133.827 19.3041 134.284 20.6721 134.284 22.5281V30.0401H131.755ZM128.153 30.2081C127.295 30.2081 126.545 30.0481 125.902 29.7281C125.259 29.3921 124.759 28.9361 124.401 28.3601C124.058 27.7681 123.887 27.1041 123.887 26.3681C123.887 25.6481 124.037 25.0001 124.337 24.4241C124.651 23.8481 125.159 23.3921 125.859 23.0561C126.559 22.7201 127.488 22.5521 128.646 22.5521H131.969V24.5441H128.839C127.924 24.5441 127.31 24.7121 126.995 25.0481C126.681 25.3681 126.524 25.7681 126.524 26.2481C126.524 26.7921 126.717 27.2241 127.102 27.5441C127.488 27.8641 128.024 28.0241 128.71 28.0241C129.368 28.0241 129.954 27.8561 130.468 27.5201C130.997 27.1841 131.376 26.6881 131.604 26.0321L132.055 27.8321C131.797 28.5841 131.333 29.1681 130.661 29.5841C130.004 30.0001 129.168 30.2081 128.153 30.2081Z" fill="#151919"/>
<path d="M117.497 30.2081C116.297 30.2081 115.225 29.9281 114.282 29.3681C113.353 28.7921 112.624 28.0081 112.095 27.0161C111.566 26.0241 111.302 24.8961 111.302 23.6321C111.302 22.3521 111.566 21.2241 112.095 20.2481C112.624 19.2561 113.353 18.4801 114.282 17.9201C115.225 17.3601 116.297 17.0801 117.497 17.0801C118.612 17.0801 119.591 17.3361 120.434 17.8481C121.292 18.3441 121.942 19.0801 122.385 20.0561L120.327 21.4001C119.984 20.7921 119.563 20.3441 119.062 20.0561C118.576 19.7681 118.048 19.6241 117.476 19.6241C116.819 19.6241 116.225 19.7841 115.697 20.1041C115.168 20.4241 114.753 20.8881 114.453 21.4961C114.153 22.0881 114.003 22.8001 114.003 23.6321C114.003 24.4641 114.153 25.1841 114.453 25.7921C114.753 26.3841 115.168 26.8401 115.697 27.1601C116.225 27.4801 116.819 27.6401 117.476 27.6401C118.048 27.6401 118.576 27.4961 119.062 27.2081C119.563 26.9201 119.984 26.4721 120.327 25.8641L122.385 27.2081C121.942 28.1681 121.292 28.9121 120.434 29.4401C119.591 29.9521 118.612 30.2081 117.497 30.2081Z" fill="#151919"/>
<path d="M103.671 30.28C102.499 30.28 101.377 30.096 100.305 29.728C99.2331 29.344 98.3828 28.856 97.7539 28.264L98.7186 25.84C99.3189 26.368 100.062 26.808 100.948 27.16C101.834 27.512 102.742 27.688 103.671 27.688C104.457 27.688 105.093 27.592 105.579 27.4C106.065 27.208 106.422 26.952 106.651 26.632C106.879 26.296 106.994 25.92 106.994 25.504C106.994 24.992 106.829 24.584 106.501 24.28C106.172 23.96 105.743 23.712 105.214 23.536C104.7 23.344 104.121 23.168 103.478 23.008C102.849 22.848 102.213 22.664 101.57 22.456C100.941 22.232 100.362 21.952 99.8334 21.616C99.3189 21.264 98.8973 20.8 98.5686 20.224C98.2398 19.648 98.0755 18.912 98.0755 18.016C98.0755 17.104 98.2899 16.272 98.7186 15.52C99.1617 14.752 99.8263 14.144 100.712 13.696C101.613 13.232 102.749 13 104.121 13C105.021 13 105.915 13.128 106.801 13.384C107.687 13.64 108.459 14.008 109.116 14.488L108.237 16.912C107.565 16.464 106.872 16.136 106.158 15.928C105.443 15.704 104.757 15.592 104.1 15.592C103.328 15.592 102.699 15.696 102.213 15.904C101.741 16.112 101.391 16.384 101.163 16.72C100.948 17.056 100.841 17.44 100.841 17.872C100.841 18.384 100.998 18.8 101.313 19.12C101.641 19.424 102.063 19.664 102.578 19.84C103.106 20.016 103.692 20.192 104.335 20.368C104.979 20.528 105.615 20.712 106.243 20.92C106.887 21.128 107.465 21.4 107.98 21.736C108.509 22.072 108.93 22.528 109.245 23.104C109.574 23.68 109.738 24.408 109.738 25.288C109.738 26.184 109.516 27.016 109.073 27.784C108.645 28.536 107.98 29.144 107.08 29.608C106.179 30.056 105.043 30.28 103.671 30.28Z" fill="#151919"/>
<path d="M75.3828 30.04V13.24H81.9429C83.5722 13.24 85.0014 13.592 86.2306 14.296C87.4597 15 88.4173 15.976 89.1033 17.224C89.7893 18.472 90.1323 19.944 90.1323 21.64C90.1323 23.32 89.7893 24.792 89.1033 26.056C88.4173 27.304 87.4597 28.28 86.2306 28.984C85.0014 29.688 83.5722 30.04 81.9429 30.04H75.3828ZM78.1698 27.4H81.8143C82.9434 27.4 83.9152 27.16 84.7299 26.68C85.5588 26.2 86.1948 25.528 86.6379 24.664C87.0953 23.8 87.3239 22.792 87.3239 21.64C87.3239 20.472 87.0953 19.464 86.6379 18.616C86.1948 17.752 85.5588 17.08 84.7299 16.6C83.9152 16.12 82.9434 15.88 81.8143 15.88H78.1698V27.4Z" fill="#151919"/>
<path d="M69.5361 30.04V13.24H72.3231V30.04H69.5361Z" fill="#151919"/>
<path d="M61.3243 30.2081C60.0523 30.2081 58.9375 29.9281 57.9799 29.3681C57.0366 28.7921 56.3006 28.0081 55.7718 27.0161C55.2573 26.0241 55 24.8961 55 23.6321C55 22.3521 55.2501 21.2241 55.7503 20.2481C56.2649 19.2561 56.9652 18.4801 57.8513 17.9201C58.7517 17.3601 59.7736 17.0801 60.917 17.0801C62.0318 17.0801 63.0251 17.3521 63.8969 17.8961C64.7687 18.4401 65.4547 19.2081 65.955 20.2001C66.4552 21.1921 66.7053 22.3601 66.7053 23.7041C66.7053 23.8321 66.6981 23.9761 66.6839 24.1361C66.6839 24.2961 66.6767 24.4481 66.6624 24.5921H57.1224V22.6001H65.2475L64.197 23.2241C64.2113 22.4881 64.0755 21.8401 63.7897 21.2801C63.5038 20.7201 63.1108 20.2801 62.6106 19.9601C62.1247 19.6401 61.5601 19.4801 60.917 19.4801C60.2595 19.4801 59.6807 19.6401 59.1805 19.9601C58.6945 20.2801 58.3086 20.7281 58.0228 21.3041C57.7512 21.8641 57.6155 22.5281 57.6155 23.2961V23.7761C57.6155 24.5441 57.7727 25.2241 58.0871 25.8161C58.4015 26.4081 58.8446 26.8641 59.4163 27.1841C59.988 27.5041 60.6454 27.6641 61.3886 27.6641C62.0318 27.6641 62.6106 27.5521 63.1251 27.3281C63.6396 27.1041 64.097 26.7521 64.4972 26.2721L65.9335 28.1201C65.419 28.7921 64.7687 29.3121 63.9826 29.6801C63.2109 30.0321 62.3247 30.2081 61.3243 30.2081Z" fill="#151919"/>
<mask id="mask0_1060_42731" style="mask-type:alpha" maskUnits="userSpaceOnUse" x="4" y="0" width="28" height="45">
<path d="M4 22.5L32 0V45L4 22.5Z" fill="#D9D9D9"/>
</mask>
<g mask="url(#mask0_1060_42731)">
<ellipse cx="7.49999" cy="22.5" rx="22.5" ry="22.5" transform="rotate(-180 7.49999 22.5)" stroke="white" stroke-width="3"/>
<ellipse cx="6.5" cy="22.5" rx="16.5" ry="16.5" transform="rotate(-180 6.5 22.5)" stroke="white" stroke-width="3"/>
<ellipse cx="5.5" cy="22.5" rx="10.5" ry="10.5" transform="rotate(-180 5.5 22.5)" stroke="white" stroke-width="3"/>
</g>
</svg>
